<?xml version="1.0" encoding="UTF-8"?>
<svg version="1.1" xmlns="http://www.w3.org/2000/svg" width="500" height="500">
<path d="M0 0 C165 0 330 0 500 0 C500 165 500 330 500 500 C335 500 170 500 0 500 C0 335 0 170 0 0 Z " fill="#FEFEFE" transform="translate(0,0)"/>
<path d="M0 0 C0.67671753 -0.00287018 1.35343506 -0.00574036 2.05065918 -0.00869751 C3.47958209 -0.01073647 4.90853302 -0.00521819 6.33740234 0.00732422 C8.52374725 0.02338239 10.70824379 0.00747216 12.89453125 -0.01171875 C14.28385824 -0.00973629 15.67318409 -0.00589254 17.0625 0 C18.32642578 0.00338379 19.59035156 0.00676758 20.89257812 0.01025391 C24.03125 0.3984375 24.03125 0.3984375 25.90698242 1.69018555 C27.85720477 4.65342241 28.19462296 8.15315997 28.84375 11.5859375 C30.84137575 21.01746455 34.13348048 26.65961195 42.03125 32.3984375 C52.16665297 38.03015813 62.38589136 41.33261471 74.03125 39.3984375 C78.95708791 37.74573173 82.79202855 35.46474433 86.71875 32.0859375 C89.98017502 29.7059787 92.06159668 30.00302952 96.03125 30.3984375 C98.66186523 32.13916016 98.66186523 32.13916016 101.08984375 34.5625 C102.40952148 35.87541016 102.40952148 35.87541016 103.75585938 37.21484375 C104.65111328 38.14167969 105.54636719 39.06851563 106.46875 40.0234375 C107.39107422 40.92707031 108.31339844 41.83070312 109.26367188 42.76171875 C115.93445274 49.52631519 115.93445274 49.52631519 116.38061523 53.54614258 C115.95130131 57.05115624 114.8096508 58.68788463 112.65625 61.4609375 C107.01010158 68.81487155 106.04207827 75.07640369 106.73681641 84.33154297 C107.6028087 90.41072267 110.34153121 95.9419674 113.03125 101.3984375 C113.43730469 102.22601563 113.84335938 103.05359375 114.26171875 103.90625 C117.64838857 109.98607364 122.3429699 114.20132162 129.00390625 116.36328125 C132.00216797 117.11006019 135.00722088 117.76559994 138.03125 118.3984375 C143.68978659 120.05697409 143.68978659 120.05697409 146.03125 122.3984375 C146.45330778 126.63674886 146.40284338 130.89005512 146.40185547 135.14697266 C146.40622009 137.2589635 146.44250594 139.36884914 146.48046875 141.48046875 C146.48633881 142.8255137 146.49030694 144.17056856 146.4921875 145.515625 C146.50040527 146.73878418 146.50862305 147.96194336 146.51708984 149.22216797 C145.93988943 152.99572444 145.06125557 154.14711151 142.03125 156.3984375 C138.640625 157.234375 138.640625 157.234375 134.78125 157.7734375 C128.19477968 158.87276774 123.76282732 160.63137335 119.03125 165.3984375 C118.165 166.2234375 117.29875 167.0484375 116.40625 167.8984375 C108.65534923 177.75842691 106.24235507 190.22900277 107.03125 202.3984375 C108.14679287 208.08014314 110.99775044 211.99135891 114.82421875 216.24609375 C116.7790395 219.73187445 116.79226686 221.42913376 116.03125 225.3984375 C113.37940346 229.07339797 110.22503413 232.13473475 106.96875 235.2734375 C106.12119141 236.1396875 105.27363281 237.0059375 104.40039062 237.8984375 C97.37476811 244.82098138 97.37476811 244.82098138 93.21484375 245.671875 C89.47871824 245.35098078 88.02215897 244.52222069 85.15625 242.1484375 C77.59776028 236.42819075 70.497704 234.40316826 61.03125 235.3984375 C57.30818295 236.42594941 53.8632302 237.88165075 50.34375 239.4609375 C48.99700195 240.0168457 48.99700195 240.0168457 47.62304688 240.58398438 C40.74549402 243.58189203 35.45477683 247.31362212 31.578125 253.84765625 C31.31515625 254.58628906 31.0521875 255.32492187 30.78125 256.0859375 C30.47832031 256.92511719 30.17539063 257.76429688 29.86328125 258.62890625 C28.64531555 262.68307378 27.69960222 266.78575849 26.83984375 270.9296875 C26.03125 273.3984375 26.03125 273.3984375 23.03125 275.3984375 C18.74691301 275.80696002 14.4537248 275.77004422 10.15234375 275.76904297 C8.03824711 275.773423 5.92622821 275.80977053 3.8125 275.84765625 C2.46875713 275.85352351 1.12500436 275.85749351 -0.21875 275.859375 C-1.44078125 275.86759277 -2.6628125 275.87581055 -3.921875 275.88427734 C-6.96875 275.3984375 -6.96875 275.3984375 -8.82861328 273.59521484 C-10.47187253 270.42903781 -11.1156846 267.10974511 -11.84375 263.6484375 C-13.84601391 255.13642539 -15.83244267 249.14117476 -23.46875 244.2109375 C-34.18056218 238.36813086 -45.46359936 233.44768068 -57.69921875 236.59765625 C-62.46932755 238.28074111 -67.05039043 240.71043995 -70.85546875 244.05859375 C-73.77043844 245.90671686 -75.55846733 245.76416346 -78.96875 245.3984375 C-81.37817383 243.68603516 -81.37817383 243.68603516 -83.67578125 241.3125 C-84.92584961 240.04019531 -84.92584961 240.04019531 -86.20117188 238.7421875 C-87.47831055 237.39640625 -87.47831055 237.39640625 -88.78125 236.0234375 C-89.65201172 235.13398438 -90.52277344 234.24453125 -91.41992188 233.328125 C-98.7347682 225.80232832 -98.7347682 225.80232832 -99.40625 221.7734375 C-98.8628411 217.58142602 -97.24938987 215.69401068 -94.57421875 212.5234375 C-89.25666906 205.48512355 -88.7974115 198.2875113 -89.56347656 189.80078125 C-91.3147593 179.41968359 -96.63803421 169.3780859 -104.890625 162.88671875 C-109.80795485 159.72407712 -114.2550652 158.42239535 -119.96875 157.3984375 C-126.61213782 155.93335578 -126.61213782 155.93335578 -128.96875 152.3984375 C-129.35500984 148.11352838 -129.29793691 143.81969398 -129.28442383 139.51953125 C-129.28126091 137.405727 -129.30474013 135.29331904 -129.33007812 133.1796875 C-129.33235095 131.83593926 -129.33305469 130.49218727 -129.33203125 129.1484375 C-129.33501221 127.92640625 -129.33799316 126.704375 -129.34106445 125.4453125 C-128.96875 122.3984375 -128.96875 122.3984375 -127.67919922 120.53637695 C-124.72091502 118.56826924 -121.21815351 118.23650998 -117.78125 117.5859375 C-109.16123105 115.74563761 -104.3079479 113.05565425 -98.34375 106.5234375 C-91.50723487 95.93033896 -88.22590243 83.91118926 -89.96875 71.3984375 C-91.500424 66.27664932 -94.6040859 62.28300875 -98.015625 58.234375 C-99.44789912 55.47548633 -99.27446754 53.47394184 -98.96875 50.3984375 C-96.29058325 46.49017152 -92.78465992 43.33338209 -89.40625 40.0234375 C-88.51099609 39.09660156 -87.61574219 38.16976562 -86.69335938 37.21484375 C-85.37368164 35.90193359 -85.37368164 35.90193359 -84.02734375 34.5625 C-83.22611084 33.76279785 -82.42487793 32.9630957 -81.59936523 32.13916016 C-78.17937062 29.87609179 -75.99423556 29.97627603 -71.96875 30.3984375 C-69.2734375 31.859375 -69.2734375 31.859375 -66.84375 33.7734375 C-59.88434939 39.17642264 -53.86602312 40.51932665 -45.04101562 39.74462891 C-35.25050911 38.10903298 -22.57965904 32.59214372 -16.71875 24.4609375 C-16.23921875 23.81253906 -15.7596875 23.16414063 -15.265625 22.49609375 C-12.04557489 17.28775969 -11.3971526 12.12250431 -10.62890625 6.140625 C-9.15766777 0.02932671 -5.83224898 0.01561413 0 0 Z " fill="#000000" transform="translate(128.96875,78.6015625)"/>
<path d="M0 0 C1.91619141 -0.00773438 1.91619141 -0.00773438 3.87109375 -0.015625 C4.53351074 -0.00724609 5.19592773 0.00113281 5.87841797 0.00976562 C7.90063448 0.0311905 9.91929961 0.00995261 11.94140625 -0.015625 C13.21886719 -0.01046875 14.49632812 -0.0053125 15.8125 0 C16.98103516 0.00451172 18.14957031 0.00902344 19.35351562 0.01367188 C23.03272839 0.63746674 24.18058538 1.58565235 26.40625 4.53125 C27.22203494 7.17405329 27.86867937 9.64843058 28.40625 12.34375 C30.06167727 20.50592614 32.58748137 27.06897076 39.68359375 31.9765625 C50.38554654 38.08757715 61.1018832 42.67411109 73.56640625 40.08203125 C78.72857376 38.47077817 82.67140842 35.25261781 86.81640625 31.859375 C89.40625 30.53125 89.40625 30.53125 92.62890625 30.26953125 C98.37654501 32.18937336 101.68014056 36.13167721 105.78125 40.46875 C106.59980469 41.30599609 107.41835938 42.14324219 108.26171875 43.00585938 C115.28347928 50.24304705 115.28347928 50.24304705 115.67578125 54.359375 C115.35868349 58.09101818 114.42445369 59.40526781 112.09375 62.28125 C106.86155403 69.38132932 104.43769415 76.39688999 105.56640625 85.26171875 C108.1851831 95.45667793 112.81891475 107.82764147 121.66015625 114.140625 C127.33994142 116.94688096 132.42672402 118.27068879 138.7421875 118.87890625 C142.15583655 119.71479979 143.24822958 120.76823787 145.40625 123.53125 C145.90795898 126.69165039 145.90795898 126.69165039 145.90234375 130.37890625 C145.90379898 131.03201279 145.90525421 131.68511932 145.90675354 132.35801697 C145.90509854 133.73392209 145.89358152 135.10984649 145.87280273 136.4855957 C145.84379058 138.5908054 145.85220972 140.69350355 145.86523438 142.79882812 C145.85899797 144.13803306 145.85060778 145.47723006 145.83984375 146.81640625 C145.83009521 148.03207275 145.82034668 149.24773926 145.81030273 150.50024414 C145.40625 153.53125 145.40625 153.53125 144.0690918 155.40258789 C141.48522128 157.15640281 138.83886025 157.39331756 135.78125 157.90625 C127.51322638 159.55985472 120.20157453 162.21566212 114.890625 169.078125 C108.33864893 179.90612755 104.51089727 190.7752253 106.40625 203.53125 C107.93211767 209.05649713 110.74413293 213.40703523 114.453125 217.73046875 C115.90845731 220.48009251 115.72782731 222.45509988 115.40625 225.53125 C113.55786133 228.14013672 113.55786133 228.14013672 110.98828125 230.7109375 C109.60092773 232.103125 109.60092773 232.103125 108.18554688 233.5234375 C107.69820068 233.99620117 107.21085449 234.46896484 106.70874023 234.95605469 C105.22121779 236.40384812 103.76533916 237.87877545 102.31054688 239.359375 C95.15008427 246.43559687 95.15008427 246.43559687 91.70654297 246.87841797 C88.92909758 246.45923655 87.81759333 245.62058342 85.71875 243.78125 C78.93256473 238.42840854 71.68294693 235.58830309 62.9609375 235.8828125 C58.24124341 236.74376769 54.01828633 238.32869635 49.59375 240.15625 C48.79332275 240.48657227 47.99289551 240.81689453 47.16821289 241.15722656 C38.84570308 244.84302093 33.26423851 249.4238333 29.39453125 257.73046875 C27.9786625 261.74302959 27.41209852 265.74483764 26.9609375 269.96484375 C26.30947991 272.97898205 25.89256226 273.74650826 23.40625 275.53125 C20.26757812 275.91943359 20.26757812 275.91943359 16.4375 275.9296875 C15.76078247 275.93255768 15.08406494 275.93542786 14.38684082 275.93838501 C12.95791791 275.94042397 11.52896698 275.93490569 10.10009766 275.92236328 C7.91375275 275.90630511 5.72925621 275.92221534 3.54296875 275.94140625 C2.15364176 275.93942379 0.76431591 275.93558004 -0.625 275.9296875 C-2.52088867 275.92461182 -2.52088867 275.92461182 -4.45507812 275.91943359 C-7.59375 275.53125 -7.59375 275.53125 -9.4831543 274.20996094 C-11.28328245 271.48899343 -11.43159785 268.6028869 -11.90625 265.40625 C-13.43996522 256.70163364 -16.31823213 250.64144674 -23.53125 245.34375 C-33.80234216 239.1810947 -44.44094341 234.65411876 -56.59375 236.53125 C-62.53043745 238.18287866 -67.04705825 241.36701183 -71.671875 245.359375 C-74.25023155 246.93154363 -75.59893841 246.91668054 -78.59375 246.53125 C-82.04105181 243.99965355 -84.94800071 240.93691818 -87.94311523 237.88867188 C-89.40022373 236.41235571 -90.88423859 234.96769722 -92.37304688 233.5234375 C-93.29794922 232.5953125 -94.22285156 231.6671875 -95.17578125 230.7109375 C-96.44772339 229.43839111 -96.44772339 229.43839111 -97.74536133 228.14013672 C-99.98784696 224.97500643 -100.08579572 223.33258928 -99.59375 219.53125 C-98.1328125 216.93359375 -98.1328125 216.93359375 -96.21875 214.46875 C-90.55746149 207.09509645 -89.30722128 200.14241836 -90.16601562 190.94189453 C-90.98352728 186.33452575 -92.75973904 182.16310746 -94.65625 177.90625 C-95.21082886 176.64542603 -95.21082886 176.64542603 -95.77661133 175.35913086 C-99.47594415 167.64333524 -104.61656036 162.77672259 -112.59375 159.53125 C-116.06438766 158.52314134 -119.5835395 157.76047269 -123.11132812 156.98242188 C-124.95280495 156.55508941 -126.7756804 156.04920063 -128.59375 155.53125 C-130.7408731 151.23700379 -129.8618106 145.54994969 -129.88891602 140.78271484 C-129.90613067 138.67088928 -129.95001939 136.56062941 -129.99414062 134.44921875 C-130.00426795 133.10417816 -130.01278393 131.75912429 -130.01953125 130.4140625 C-130.03411377 129.19090332 -130.04869629 127.96774414 -130.0637207 126.70751953 C-129.50655602 122.94195457 -128.58805043 121.80090708 -125.59375 119.53125 C-123.078125 118.80859375 -123.078125 118.80859375 -120.34375 118.46875 C-113.26007096 117.38258588 -106.75823061 115.831638 -101.59375 110.53125 C-99.321698 107.32972218 -97.42667355 104.0003697 -95.59375 100.53125 C-95.10132813 99.60957031 -94.60890625 98.68789063 -94.1015625 97.73828125 C-89.831421 88.79993421 -88.59489762 78.67230941 -91.71875 69.09375 C-93.32888948 65.50010537 -95.7662117 62.59739356 -98.38671875 59.68359375 C-100.3415395 56.19781305 -100.35476686 54.50055374 -99.59375 50.53125 C-96.94190346 46.85628953 -93.78753413 43.79495275 -90.53125 40.65625 C-89.25991211 39.356875 -89.25991211 39.356875 -87.96289062 38.03125 C-80.93728548 31.10872323 -80.93728548 31.10872323 -76.78515625 30.2578125 C-73.03429656 30.57918359 -71.50038319 31.42917183 -68.59375 33.78125 C-60.74681609 39.68412371 -54.41642755 41.78420285 -44.59375 40.53125 C-40.05257176 39.26469969 -35.86501445 37.51471187 -31.59375 35.53125 C-30.58570313 35.08523437 -29.57765625 34.63921875 -28.5390625 34.1796875 C-20.03730236 30.05552743 -15.70125097 24.38291943 -12.59375 15.53125 C-12.09571678 12.74463554 -11.71748866 9.95907522 -11.3515625 7.15234375 C-9.58795443 1.05244162 -5.9384823 0.0229285 0 0 Z " fill="#000000" transform="translate(354.59375,215.46875)"/>
<path d="M0 0 C1.53333984 -0.00386719 1.53333984 -0.00386719 3.09765625 -0.0078125 C4.16886719 -0.00007812 5.24007812 0.00765625 6.34375 0.015625 C7.95056641 0.00402344 7.95056641 0.00402344 9.58984375 -0.0078125 C10.61207031 -0.00523438 11.63429688 -0.00265625 12.6875 0 C13.62787109 0.00225586 14.56824219 0.00451172 15.53710938 0.00683594 C17.84375 0.265625 17.84375 0.265625 19.84375 2.265625 C20.30078125 4.3671875 20.30078125 4.3671875 20.65625 6.890625 C21.88544458 13.48444397 24.36807175 18.19296414 29.53125 22.515625 C37.0775656 26.50235777 44.13804403 29.86435804 52.84375 28.265625 C57.31010632 26.56564949 61.44339682 24.66597818 64.84375 21.265625 C68.67531025 21.18278045 70.67894902 22.78825782 73.39453125 25.25 C74.65897963 26.49458794 75.91262628 27.75022826 77.15625 29.015625 C78.12401367 29.94761719 78.12401367 29.94761719 79.11132812 30.8984375 C83.66470322 35.46626775 83.66470322 35.46626775 84.44921875 38.96875 C83.73058024 41.69493995 82.65694802 43.11664956 80.84375 45.265625 C76.79204957 51.10200299 76.68647994 56.3760106 77.84375 63.265625 C80.51162973 72.02244111 83.52501802 78.7080196 91.703125 83.3125 C94.89561935 84.73397558 98.17187653 85.13320686 101.6015625 85.703125 C103.84375 86.265625 103.84375 86.265625 105.84375 88.265625 C106.32273442 91.89101378 106.2141283 95.5496728 106.21875 99.203125 C106.24324219 100.21826172 106.26773438 101.23339844 106.29296875 102.27929688 C106.29683594 103.25318359 106.30070313 104.22707031 106.3046875 105.23046875 C106.31290527 106.1237085 106.32112305 107.01694824 106.32958984 107.93725586 C105.84375 110.265625 105.84375 110.265625 103.99023438 112.03198242 C101.3493299 113.54978159 98.95390804 114.05574671 95.96875 114.640625 C90.96350998 115.85548908 86.93312184 116.93128242 83.84375 121.265625 C79.5251413 128.8410568 75.52233568 136.78643222 77.328125 145.640625 C78.43819024 149.39017872 79.52630725 151.89527512 82.09375 154.890625 C83.84375 157.265625 83.84375 157.265625 83.80859375 160.515625 C82.59432288 165.23505834 80.61655266 167.3589454 77.15625 170.640625 C76.63869141 171.17300781 76.12113281 171.70539063 75.58789062 172.25390625 C73.01258348 174.77469257 71.20559508 176.14546512 67.73828125 177.296875 C64.25424364 177.25926056 62.95751381 176.49066651 60.21875 174.390625 C55.66933484 170.95861005 52.10182687 169.84209022 46.32421875 169.91796875 C37.15221413 171.20349381 28.95328831 175.27547134 23.09375 182.390625 C21.46925466 186.12696429 20.94233307 189.81940701 20.37109375 193.83984375 C19.84375 196.265625 19.84375 196.265625 17.84375 198.265625 C15.53710938 198.52441406 15.53710938 198.52441406 12.6875 198.53125 C11.15416016 198.53511719 11.15416016 198.53511719 9.58984375 198.5390625 C8.51863281 198.53132812 7.44742188 198.52359375 6.34375 198.515625 C5.27253906 198.52335938 4.20132813 198.53109375 3.09765625 198.5390625 C2.07542969 198.53648437 1.05320312 198.53390625 0 198.53125 C-0.94037109 198.52899414 -1.88074219 198.52673828 -2.84960938 198.52441406 C-5.15625 198.265625 -5.15625 198.265625 -7.15625 196.265625 C-7.95517658 193.33330108 -8.55931193 190.38106297 -9.1796875 187.40625 C-10.8040221 182.18238993 -12.80462289 179.11517364 -17.46875 176.18359375 C-18.68992523 175.59003969 -19.91941754 175.01332213 -21.15625 174.453125 C-21.77242188 174.15470703 -22.38859375 173.85628906 -23.0234375 173.54882812 C-28.64815545 170.87527657 -33.88496829 169.28273247 -40.15625 170.265625 C-44.79978087 172.10927874 -49.00587904 174.49871103 -53.15625 177.265625 C-57.72263832 177.28928504 -60.11917563 174.87022761 -63.21679688 171.84960938 C-63.79494141 171.26501953 -64.37308594 170.68042969 -64.96875 170.078125 C-65.8649707 169.23024414 -65.8649707 169.23024414 -66.77929688 168.36523438 C-69.56475716 165.58614086 -71.02146426 164.05675869 -71.6953125 160.1015625 C-71.13911927 157.17550245 -70.42266274 155.49642608 -68.71875 153.078125 C-64.74534301 147.33875934 -64.38339116 142.126894 -65.15625 135.265625 C-67.23902529 128.40912874 -69.98696858 121.24368316 -76.015625 116.9375 C-79.54329576 115.21739608 -82.53938722 114.07218117 -86.46875 113.703125 C-90.15625 113.265625 -90.15625 113.265625 -91.85961914 112.05078125 C-94.49058341 108.42856119 -93.62398682 103.57574571 -93.59375 99.265625 C-93.61373047 98.255 -93.63371094 97.244375 -93.65429688 96.203125 C-93.65333008 94.7490625 -93.65333008 94.7490625 -93.65234375 93.265625 C-93.65419678 92.37875 -93.6560498 91.491875 -93.65795898 90.578125 C-93.15625 88.265625 -93.15625 88.265625 -91.27099609 86.48779297 C-88.88486335 85.10878344 -87.06691329 84.74227758 -84.34375 84.390625 C-79.28885596 83.45398287 -75.66327907 82.12156767 -72.15625 78.265625 C-70.14317828 75.05863042 -68.60750142 71.75769872 -67.15625 68.265625 C-66.723125 67.29625 -66.29 66.326875 -65.84375 65.328125 C-64.54859497 59.55879803 -63.8128815 53.98750826 -66.5 48.54296875 C-67.563959 46.87927814 -68.67580182 45.24475458 -69.84375 43.65234375 C-71.5968916 40.46433923 -71.81094151 38.86194412 -71.15625 35.265625 C-69.40886902 32.6772887 -67.28550334 30.6020165 -65.03125 28.453125 C-64.46148437 27.86853516 -63.89171875 27.28394531 -63.3046875 26.68164062 C-60.59838983 24.0276237 -58.65228123 22.43447354 -55.0234375 21.19921875 C-51.56179001 21.27939315 -50.15693335 22.08235505 -47.40625 24.140625 C-46.64828125 24.69492187 -45.8903125 25.24921875 -45.109375 25.8203125 C-44.46484375 26.29726563 -43.8203125 26.77421875 -43.15625 27.265625 C-38.57617068 29.55566466 -33.59804867 28.69575587 -28.8828125 27.2890625 C-18.25708253 23.57575868 -18.25708253 23.57575868 -10.90625 15.578125 C-9.220982 11.86635706 -8.33277571 8.15670413 -7.6484375 4.1484375 C-6.51459447 -0.18896205 -3.91008241 0.00937991 0 0 Z " fill="#010101" transform="translate(336.15625,8.734375)"/>
<path d="M0 0 C9.6431538 5.550766 16.53823937 13.76027152 19.53125 24.45703125 C20.70026842 36.56860582 19.01129392 47.09210339 11.234375 56.67578125 C3.37321364 64.89754634 -5.30404931 68.46419639 -16.59375 68.83203125 C-26.29712139 68.73245275 -34.69320366 65.18401089 -41.71875 58.48046875 C-48.28321362 50.89030768 -51.86769818 42.70995311 -51.84375 32.64453125 C-51.84133301 31.58613037 -51.84133301 31.58613037 -51.83886719 30.50634766 C-51.701523 24.65036858 -50.5312941 20.39113007 -47.46875 15.45703125 C-46.89125 14.42578125 -46.31375 13.39453125 -45.71875 12.33203125 C-34.68740716 -1.7635735 -16.76256572 -7.14428629 0 0 Z " fill="#FDFDFD" transform="translate(153.46875,183.54296875)"/>
<path d="M0 0 C7.31980327 5.16388238 12.12814225 12.54678686 14.25 21.25 C15.28456664 31.3631795 14.50887987 40.96350361 8.5625 49.4375 C2.71386942 56.56821955 -4.32239726 63.46480119 -13.86083984 64.47314453 C-25.6713137 65.24947694 -34.55203272 64.65195747 -43.9375 57 C-52.72305353 48.77448176 -56.78102811 41.03203826 -57.25 28.9375 C-57.01490401 18.73637842 -53.73040802 10.31073635 -46.625 2.9296875 C-32.6969996 -9.54747953 -15.45344253 -9.44233717 0 0 Z " fill="#FDFDFD" transform="translate(383.75,324.75)"/>
<path d="M0 0 C5.62504248 4.75028194 8.57300543 10.60551426 9.28125 17.89453125 C9.5761482 27.66303405 7.63994304 34.04413452 0.96875 41.23828125 C-5.36227919 46.90354745 -12.76519542 48.44646406 -21.0546875 48.3359375 C-27.83533386 47.56254813 -33.18507304 44.22458404 -37.875 39.375 C-42.81597391 33.13438603 -45.44302287 26.30906279 -45 18.3125 C-43.7040708 9.54005616 -40.15766143 4.34140826 -33.3515625 -1.30078125 C-22.49662445 -9.14446572 -10.74468328 -7.11599638 0 0 Z " fill="#FCFCFC" transform="translate(360,87)"/>
</svg>
